<?xml version="1.0" encoding="utf-8"?>
<svg width="256" height="256" viewBox="0 0 256 256" fill="none" xmlns="http://www.w3.org/2000/svg">
  <defs>
    <linearGradient id="brandGrad" x1="0" y1="0" x2="0" y2="256" gradientUnits="userSpaceOnUse">
      <stop offset="0%" stop-color="#FFCD3C"/>
      <stop offset="100%" stop-color="#FF6F00"/>
    </linearGradient>
  </defs>
  <!-- Squircle Background -->
  <rect width="256" height="256" rx="60" fill="url(#brandGrad)"/>
  <!-- Bold Geometric 'B' Centered with evenodd cutouts -->
  <path fill-rule="evenodd" clip-rule="evenodd" d="M85,60 H140 C162,60 175,71 175,90 C175,106 164,118 145,122 C168,126 178,138 178,158 C178,181 162,196 135,196 H85 Z M117,84 H134 C144,84 150,88 150,96 C150,104 144,108 134,108 H117 Z M117,132 H136 C146,132 153,137 153,148 C153,159 146,164 136,164 H117 Z" fill="#0D0E15"/>
</svg>
